<?xml version="1.0" encoding="utf-8"?>
<!-- Generator: Adobe Illustrator 11 Build 196, SVG Export Plug-In  -->
<!DOCTYPE svg PUBLIC "-//W3C//DTD SVG 1.0//EN"    "http://www.w3.org/TR/2001/REC-SVG-20010904/DTD/svg10.dtd" [
	<!ENTITY ns_flows "http://ns.adobe.com/Flows/1.0/">
	<!ENTITY ns_svg "http://www.w3.org/2000/svg">
	<!ENTITY ns_xlink "http://www.w3.org/1999/xlink">
]>
<svg  xmlns="&ns_svg;" xmlns:xlink="&ns_xlink;" xmlns:a="http://ns.adobe.com/AdobeSVGViewerExtensions/3.0/"
	 width="489" height="207" viewBox="-0.2256 -0.4951 489 207" xml:space="preserve">
	<defs>
	</defs>
	<g>
		<path d="M361.335,82.6748c2.1426,7.9824,2.4873,16.5176,2.8555,25.5381c0.4961,12.0635-0.4375,24.0879-0.4375,36.1416
			c0,21.8271-1.7871,62.1094-53.5781,62.1094c-12.7012,0-25.998-2.7803-34.5283-7.9395l5.1592-17.8574
			c6.7461,3.9697,17.2627,7.7363,29.5664,7.7363c17.8604,0,30.5586-9.918,30.5586-34.7227V143.165h-0.3945
			c-5.5566,9.3262-16.2734,16.0693-30.3613,16.0693c-25.7969,0-43.4609-22.8193-43.4609-53.3809
			c0-37.1055,22.4219-57.7432,46.2314-57.7461C334.792,48.1045,355.5186,60.9893,361.335,82.6748z M340.0664,92.833
			c-1.7188-15.1006-11.6895-28.998-28.5742-25.9551c-16.1611,2.915-21.3604,23.8418-21.3604,37.9824
			c0,21.4326,9.7246,36.7139,26.7891,36.7139c11.9062,0,23.8125-9.1289,23.8125-27.3877
			C340.7334,107.9727,340.9111,100.25,340.0664,92.833z"/>
		<path d="M396.2051,159.833h-23.0205V0.6807h23.0205V159.833z"/>
		<path d="M261.1602,93.0898c-0.4121-10.9404-2.1143-21.7412-7.8828-30.1758c-6.4141-9.3838-21.8047-14.8066-32.9434-14.8066
			c-14.6797,0-27.5781,4.167-35.3164,9.1289l4.7617,15.2812c6.9473-4.5615,16.8682-7.5381,26.5918-7.5381
			c22.0244,0,22.0244,16.2725,22.0244,24.4033c-37.5029,0-60.8359,13.5-61.1172,40.6836
			c-0.1162,11.2305,5.0605,19.7354,11.1543,24.0586c13.2852,9.4238,34.6494,8.6299,48.9717,2.877
			C263.333,146.5889,262.0361,116.4922,261.1602,93.0898z M238.1338,122.79c-0.71,4.54-1.4971,8.4121-1.9619,9.3701
			c-3.8379,7.9092-11.082,12.9893-20.001,12.9893c-8.5312,0-16.0732-5.3633-16.0732-17.4629
			c0-19.4473,20.835-22.8262,38.8965-22.8262C240.377,104.8604,239.375,114.8467,238.1338,122.79z"/>
		<path d="M95.9668,116.2998c0.4121,10.9404,2.1143,21.7412,7.8828,30.1758c6.4141,9.3838,21.8047,14.8066,32.9434,14.8066
			c14.6797,0,27.5781-4.167,35.3164-9.1289l-4.7617-15.2812c-6.9473,4.5615-16.8682,7.5381-26.5918,7.5381
			c-22.0244,0-22.0244-16.2725-22.0244-24.4033c37.5029,0,60.8359-13.5,61.1172-40.6836
			c0.1162-11.2305-5.0605-19.7354-11.1543-24.0586c-13.2852-9.4238-34.6494-8.6299-48.9717-2.877
			C93.7939,62.8008,95.0908,92.8975,95.9668,116.2998z M118.9932,86.5996c0.71-4.54,1.4971-8.4121,1.9619-9.3701
			c3.8379-7.9092,11.082-12.9893,20.001-12.9893c8.5312,0,16.0732,5.3633,16.0732,17.4629c0,19.4473-20.835,22.8262-38.8965,22.8262
			C116.75,104.5293,117.752,94.543,118.9932,86.5996z"/>
		<path d="M404.6514,116.2998c0.4121,10.9404,2.1143,21.7412,7.8828,30.1758c6.4141,9.3838,21.8047,14.8066,32.9434,14.8066
			c14.6797,0,27.5781-4.167,35.3164-9.1289l-4.7617-15.2812c-6.9473,4.5615-16.8682,7.5381-26.5918,7.5381
			c-22.0244,0-22.0244-16.2725-22.0244-24.4033c37.5029,0,60.8359-13.5,61.1172-40.6836
			c0.1162-11.2305-5.0605-19.7354-11.1543-24.0586c-13.2852-9.4238-34.6494-8.6299-48.9717-2.877
			C402.4785,62.8008,403.7754,92.8975,404.6514,116.2998z M427.6777,86.5996c0.71-4.54,1.4971-8.4121,1.9619-9.3701
			c3.8379-7.9092,11.082-12.9893,20.001-12.9893c8.5312,0,16.0732,5.3633,16.0732,17.4629c0,19.4473-20.835,22.8262-38.8965,22.8262
			C425.4346,104.5293,426.4365,94.543,427.6777,86.5996z"/>
		<path d="M0,3.2197c0,8.3652,0,16.7295,0,25.0947C0,45.8037,0,63.293,0,80.7822c0,17.7461,0,35.4922,0,53.2383
			c0,9.1348,0,18.2705,0,27.4053c0,0.5059,2.689,0.6299,3.2646,0.7285c1.667,0.2842,3.3291,0.5938,5.0078,0.8037
			c6.5044,0.8115,15.1826,0.6904,21.7192,0.5029c12.9795-0.374,26.6792-1.7666,38.4961-7.5605
			c11.1738-5.4775,19.5962-15.6318,22.6797-27.7285c3.3945-13.3164,0.9902-28.4229-8.3975-38.791
			c-3.4033-3.7588-7.4658-6.6523-12.0552-8.7969c-2.1855-1.0215-4.4463-1.8975-6.7061-2.7393
			c-2.2822-0.8496-5.019-1.2998-7.104-2.5596c2.1904-0.5459,4.2886-1.4834,6.3667-2.3496
			c3.7061-1.4697,7.2275-3.4258,10.3711-5.8828c5.3481-4.1797,9.4844-9.8076,11.6611-16.252
			c4.3433-12.8613,1.1245-28.4424-9.0542-37.6729C67.145,4.8711,55.2373,1.5869,43.2485,0.5537
			c-7.7871-0.6699-17.7202-0.7412-25.5156-0.1611C11.9951,0.8203,6.3867,1.9414,0.7554,3.0693C0.5034,3.1191,0.252,3.1699,0,3.2197
			 M23.1699,66.5811V19.7959c0.5132-0.709,3.5518-1.0049,4.3496-1.2129c3.1509-0.8213,6.6079-0.6455,9.8252-0.4199
			c5.7173,0.4023,11.5879,1.6924,16.4502,4.8555c8.9443,5.8203,11.7134,17.7549,8.6055,27.626
			c-4.1357,13.1348-18.27,18.0967-30.8887,18.0967h-8.3418V66.5811 M23.1699,143.9824V86.2627h7.9297
			c11.3271,0.0156,24.1177,2.7549,31.3691,12.2461c6.3535,8.3154,6.9736,20.8428,2.6538,30.2139
			c-3.4116,7.4014-10.1953,12.2031-17.8628,14.4951c-4.6699,1.3955-9.5654,1.9502-14.4277,2.0098
			c-2.1392,0.0254-6.48,0.0967-8.5513-0.5439C23.8784,144.5586,23.3594,144.3916,23.1699,143.9824"/>
	</g>
</svg>
