<?xml version="1.0" encoding="UTF-8" standalone="no"?>
<!-- Created with Inkscape (http://www.inkscape.org/) -->
<svg
   xmlns:dc="http://purl.org/dc/elements/1.1/"
   xmlns:cc="http://web.resource.org/cc/"
   xmlns:rdf="http://www.w3.org/1999/02/22-rdf-syntax-ns#"
   xmlns:svg="http://www.w3.org/2000/svg"
   xmlns="http://www.w3.org/2000/svg"
   xmlns:xlink="http://www.w3.org/1999/xlink"
   xmlns:sodipodi="http://inkscape.sourceforge.net/DTD/sodipodi-0.dtd"
   xmlns:inkscape="http://www.inkscape.org/namespaces/inkscape"
   width="614.00000px"
   height="770.00000px"
   id="svg1306"
   sodipodi:version="0.32"
   inkscape:version="0.41+cvs"
   sodipodi:docbase="/home/garrett"
   sodipodi:docname="Beagle-logo.svg"
   inkscape:export-filename="/home/garrett/Beagle-logo.png"
   inkscape:export-xdpi="288.17307"
   inkscape:export-ydpi="288.17307">
  <defs
     id="defs3">
    <linearGradient
       y2="385.8916"
       x2="372.9424"
       y1="264.5586"
       x1="338.1338"
       gradientUnits="userSpaceOnUse"
       id="XMLID_1_"
       gradientTransform="translate(112.5743,151.8717)">
      <stop
         id="stop32"
         style="stop-color:#E6CBAA"
         offset="0" />
      <stop
         id="stop34"
         style="stop-color:#BB9D7C"
         offset="0.6292" />
    </linearGradient>
    <linearGradient
       inkscape:collect="always"
       xlink:href="#XMLID_1_"
       id="linearGradient2133"
       gradientUnits="userSpaceOnUse"
       gradientTransform="translate(112.5743,151.8717)"
       x1="338.1338"
       y1="264.5586"
       x2="372.9424"
       y2="385.8916" />
    <linearGradient
       inkscape:collect="always"
       xlink:href="#XMLID_1_"
       id="linearGradient2139"
       gradientUnits="userSpaceOnUse"
       gradientTransform="translate(0.500000,1.100000)"
       x1="338.1338"
       y1="264.5586"
       x2="372.9424"
       y2="385.8916" />
  </defs>
  <sodipodi:namedview
     id="base"
     pagecolor="#000000"
     bordercolor="#666666"
     borderopacity="1.0"
     inkscape:pageopacity="1.0000000"
     inkscape:pageshadow="2"
     inkscape:zoom="1.2766234"
     inkscape:cx="307.00000"
     inkscape:cy="385.00000"
     inkscape:document-units="px"
     inkscape:current-layer="layer1"
     showgrid="true"
     inkscape:grid-bbox="true"
     inkscape:grid-points="true"
     gridtolerance="0.50000000px"
     gridempspacing="3"
     inkscape:showpageshadow="false"
     showborder="true"
     inkscape:window-width="1600"
     inkscape:window-height="1153"
     inkscape:window-x="0"
     inkscape:window-y="0" />
  <metadata
     id="metadata4">
    <rdf:RDF
       id="RDF5">
      <cc:Work
         rdf:about=""
         id="Work6">
        <dc:format
           id="format7">image/svg+xml</dc:format>
        <dc:type
           id="type9"
           rdf:resource="http://purl.org/dc/dcmitype/StillImage" />
      </cc:Work>
    </rdf:RDF>
  </metadata>
  <g
     inkscape:label="Layer 1"
     inkscape:groupmode="layer"
     id="layer1">
    <path
       id="path8"
       d="M 265.99996,488.70001 C 265.49996,489.30001 275.39996,488.70001 275.89996,488.60001 C 356.09996,480.40001 453.29996,411.70001 461.29996,325.80001 C 463.49996,302.40001 459.79996,268.30001 448.79996,247.20001 C 418.79996,189.70001 347.09996,158.90001 285.79996,183.70001 L 263.59996,57.000010 L 192.19996,69.600010 L 265.99996,488.70001 z "
       style="fill:#ed1b2d" />
    <g
       id="g2235">
      <path
         style="fill:#ffffff"
         d="M 434.09996,586.20001 C 436.19996,594.20001 436.59996,602.70001 436.99996,611.70001 C 437.49996,623.80001 436.59996,635.80001 436.59996,647.80001 C 436.59996,669.60001 434.79996,709.90001 382.99996,709.90001 C 370.29996,709.90001 356.99996,707.10001 348.49996,702.00001 L 353.69996,684.10001 C 360.39996,688.10001 370.99996,691.80001 383.29996,691.80001 C 401.19996,691.80001 413.89996,681.90001 413.89996,657.10001 L 413.89996,646.60001 L 413.49996,646.60001 C 407.89996,655.90001 397.19996,662.70001 383.09996,662.70001 C 357.29996,662.70001 339.59996,639.90001 339.59996,609.30001 C 339.59996,572.20001 361.99996,551.60001 385.79996,551.60001 C 407.49996,551.60001 428.29996,564.50001 434.09996,586.20001 z M 412.79996,596.40001 C 411.09996,581.30001 401.09996,567.40001 384.19996,570.40001 C 367.99996,573.30001 362.79996,594.20001 362.79996,608.40001 C 362.79996,629.80001 372.49996,645.10001 389.59996,645.10001 C 401.49996,645.10001 413.39996,636.00001 413.39996,617.70001 C 413.49996,611.50001 413.59996,603.80001 412.79996,596.40001 z "
         id="path10" />
      <rect
         style="fill:#ffffff"
         x="445.89993"
         y="504.20004"
         width="23.000000"
         height="159.20000"
         id="rect12" />
      <path
         style="fill:#ffffff"
         d="M 333.89996,596.60001 C 333.49996,585.70001 331.79996,574.90001 325.99996,566.40001 C 319.59996,557.00001 304.19996,551.60001 293.09996,551.60001 C 278.39996,551.60001 265.49996,555.80001 257.79996,560.70001 L 262.59996,576.00001 C 269.49996,571.40001 279.49996,568.50001 289.19996,568.50001 C 311.19996,568.50001 311.19996,584.80001 311.19996,592.90001 C 273.69996,592.90001 250.39996,606.40001 250.09996,633.60001 C 249.99996,644.80001 255.19996,653.30001 261.29996,657.70001 C 274.59996,667.10001 295.89996,666.30001 310.29996,660.60001 C 336.09996,650.10001 334.79996,620.00001 333.89996,596.60001 z M 310.89996,626.30001 C 310.19996,630.80001 309.39996,634.70001 308.89996,635.70001 C 305.09996,643.60001 297.79996,648.70001 288.89996,648.70001 C 280.39996,648.70001 272.79996,643.30001 272.79996,631.20001 C 272.79996,611.80001 293.59996,608.40001 311.69996,608.40001 C 313.09996,608.40001 312.09996,618.40001 310.89996,626.30001 z "
         id="path14" />
      <path
         style="fill:#ffffff"
         d="M 168.69996,619.80001 C 169.09996,630.70001 170.79996,641.50001 176.59996,650.00001 C 182.99996,659.40001 198.39996,664.80001 209.49996,664.80001 C 224.19996,664.80001 237.09996,660.60001 244.79996,655.70001 L 239.99996,640.40001 C 233.09996,645.00001 223.09996,647.90001 213.39996,647.90001 C 191.39996,647.90001 191.39996,631.60001 191.39996,623.50001 C 228.89996,623.50001 252.19996,610.00001 252.49996,582.80001 C 252.59996,571.60001 247.39996,563.10001 241.29996,558.70001 C 227.99996,549.30001 206.69996,550.10001 192.29996,555.80001 C 166.49996,566.30001 167.79996,596.40001 168.69996,619.80001 z M 191.69996,590.10001 C 192.39996,585.60001 193.19996,581.70001 193.69996,580.70001 C 197.49996,572.80001 204.79996,567.70001 213.69996,567.70001 C 222.19996,567.70001 229.79996,573.10001 229.79996,585.20001 C 229.79996,604.60001 208.99996,608.00001 190.89996,608.00001 C 189.49996,608.00001 190.49996,598.10001 191.69996,590.10001 z "
         id="path16" />
      <path
         style="fill:#ffffff"
         d="M 477.39996,619.80001 C 477.79996,630.70001 479.49996,641.50001 485.29996,650.00001 C 491.69996,659.40001 507.09996,664.80001 518.19996,664.80001 C 532.89996,664.80001 545.79996,660.60001 553.49996,655.70001 L 548.69996,640.40001 C 541.79996,645.00001 531.79996,647.90001 522.09996,647.90001 C 500.09996,647.90001 500.09996,631.60001 500.09996,623.50001 C 537.59996,623.50001 560.89996,610.00001 561.19996,582.80001 C 561.29996,571.60001 556.09996,563.10001 549.99996,558.70001 C 536.69996,549.30001 515.39996,550.10001 500.99996,555.80001 C 475.19996,566.30001 476.49996,596.40001 477.39996,619.80001 z M 500.39996,590.10001 C 501.09996,585.60001 501.89996,581.70001 502.39996,580.70001 C 506.19996,572.80001 513.49996,567.70001 522.39996,567.70001 C 530.89996,567.70001 538.49996,573.10001 538.49996,585.20001 C 538.49996,604.60001 517.69996,608.00001 499.59996,608.00001 C 498.19996,608.00001 499.19996,598.10001 500.39996,590.10001 z "
         id="path18" />
      <path
         style="fill:#ffffff"
         d="M 72.699960,506.70001 C 72.699960,515.10001 72.699960,523.40001 72.699960,531.80001 C 72.699960,549.30001 72.699960,566.80001 72.699960,584.30001 C 72.699960,602.00001 72.699960,619.80001 72.699960,637.50001 C 72.699960,646.60001 72.699960,655.80001 72.699960,664.90001 C 72.699960,665.40001 75.399960,665.50001 75.999960,665.60001 C 77.699960,665.90001 79.299960,666.20001 80.999960,666.40001 C 87.499960,667.20001 96.199960,667.10001 102.69996,666.90001 C 115.69996,666.50001 129.39996,665.10001 141.19996,659.30001 C 152.39996,653.80001 160.79996,643.70001 163.89996,631.60001 C 167.29996,618.30001 164.89996,603.20001 155.49996,592.80001 C 152.09996,589.00001 147.99996,586.10001 143.39996,584.00001 C 141.19996,583.00001 138.99996,582.10001 136.69996,581.30001 C 134.39996,580.50001 131.69996,580.00001 129.59996,578.70001 C 131.79996,578.20001 133.89996,577.20001 135.99996,576.40001 C 139.69996,574.90001 143.19996,573.00001 146.39996,570.50001 C 151.69996,566.30001 155.89996,560.70001 158.09996,554.20001 C 162.39996,541.30001 159.19996,525.80001 148.99996,516.50001 C 139.89996,508.20001 127.99996,505.00001 115.99996,503.90001 C 108.19996,503.20001 98.299960,503.20001 90.499960,503.70001 C 84.799960,504.10001 79.199960,505.20001 73.499960,506.40001 C 73.199960,506.60001 72.999960,506.70001 72.699960,506.70001 M 95.899960,570.10001 L 95.899960,523.30001 C 96.399960,522.60001 99.499960,522.30001 100.19996,522.10001 C 103.39996,521.30001 106.79996,521.50001 109.99996,521.70001 C 115.69996,522.10001 121.59996,523.40001 126.49996,526.60001 C 135.39996,532.40001 138.19996,544.40001 135.09996,554.20001 C 130.99996,567.30001 116.79996,572.30001 104.19996,572.30001 L 95.899960,572.30001 L 95.899960,570.10001 M 95.899960,647.50001 L 95.899960,589.80001 L 103.79996,589.80001 C 115.09996,589.80001 127.89996,592.60001 135.19996,602.00001 C 141.59996,610.30001 142.19996,622.80001 137.89996,632.20001 C 134.49996,639.60001 127.69996,644.40001 119.99996,646.70001 C 115.29996,648.10001 110.39996,648.70001 105.59996,648.70001 C 103.49996,648.70001 99.099960,648.80001 96.999960,648.20001 C 96.599960,648.10001 96.099960,647.90001 95.899960,647.50001"
         id="path20" />
    </g>
    <g
       id="g2222">
      <path
         style="fill:none;stroke:#ffffff;stroke-width:10.000000"
         id="Outline_1_"
         d="M 421.69996,276.60001 C 413.59996,268.80001 401.99996,261.60001 390.29996,257.10001 C 385.59996,245.50001 376.29996,235.40001 360.99996,228.20001 C 335.59996,216.20001 298.59996,207.70001 274.99996,226.70001 C 267.39996,232.80001 259.89996,239.30001 250.89996,243.30001 C 250.89996,243.30001 250.89996,243.30001 250.79996,243.30001 C 242.09996,247.20001 232.09996,248.00001 229.59996,258.90001 C 227.39996,268.30001 232.99996,276.10001 225.89996,284.40001 C 216.09996,296.00001 198.29996,298.40001 185.39996,305.90001 C 184.19996,306.60001 182.99996,307.40001 181.99996,308.20001 C 179.99996,308.30001 177.79996,309.10001 175.19996,309.90001 C 165.19996,313.00001 154.09996,317.40001 148.19996,326.50001 C 141.89996,336.20001 146.59996,349.00001 152.29996,358.00001 C 155.29996,362.70001 162.89996,374.10001 170.19996,375.60001 C 171.09996,377.60001 172.09996,379.50001 173.49996,381.40001 C 195.29996,412.70001 220.49996,418.70001 256.69996,406.50001 C 269.79996,402.10001 282.19996,396.40001 294.39996,390.00001 C 292.19996,399.30001 291.99996,408.90001 295.39996,418.90001 C 301.69996,437.30001 318.09996,453.80001 339.09996,448.40001 C 361.89996,442.60001 376.89996,415.20001 390.59996,398.30001 C 405.59996,379.90001 425.59996,362.10001 432.79996,338.20001 C 438.89996,318.00001 437.89996,292.10001 421.69996,276.60001 z " />
      <g
         id="g2211">
        <path
           id="path23"
           d="M 250.89996,243.40001 C 250.89996,243.40001 250.89996,243.40001 250.89996,243.40001 C 242.09996,247.30001 232.09996,248.10001 229.59996,259.00001 C 227.39996,268.40001 232.99996,276.20001 225.89996,284.50001 C 216.09996,296.10001 198.29996,298.50001 185.39996,306.00001 C 168.09996,316.00001 165.19996,336.10001 166.29996,354.90001 C 166.89996,365.50001 167.89996,373.50001 173.49996,381.40001 C 195.29996,412.70001 220.49996,418.70001 256.69996,406.50001 C 287.29996,396.20001 314.49996,378.70001 342.09996,362.50001 C 386.39996,336.60001 423.59996,257.60001 360.99996,228.10001 C 335.59996,216.10001 298.59996,207.60001 274.99996,226.60001 C 267.39996,232.80001 259.89996,239.40001 250.89996,243.40001 z " />
        <path
           id="path25"
           d="M 233.09996,286.60001 C 214.49996,302.90001 182.79996,307.50001 169.19996,328.60001 C 154.19996,351.70001 177.59996,381.10001 196.79996,392.80001 C 238.09996,418.20001 317.49996,380.90001 345.49996,347.30001 C 361.09996,328.60001 381.89996,300.20001 380.59996,274.60001 C 378.89996,241.00001 352.39996,232.80001 325.29996,226.10001 C 311.69996,222.80001 294.39996,224.00001 282.39996,231.70001 C 273.69996,237.30001 267.49996,245.30001 257.29996,248.90001 C 249.89996,251.50001 239.59996,250.30001 238.39996,260.60001 C 236.89996,272.30001 244.49996,276.60001 233.09996,286.60001"
           style="fill:#e6cbaa" />
        <path
           id="path27"
           d="M 337.39996,273.00001 C 327.49996,277.60001 326.99996,290.50001 328.99996,299.60001 C 331.39996,310.40001 334.79996,319.70001 328.79996,330.00001 C 323.49996,339.10001 315.59996,346.30001 310.19996,355.40001 C 298.59996,374.90001 287.49996,396.00001 295.29996,418.90001 C 301.59996,437.30001 317.99996,453.80001 338.99996,448.40001 C 361.79996,442.60001 376.79996,415.20001 390.49996,398.30001 C 405.49996,379.90001 425.49996,362.10001 432.69996,338.20001 C 438.79996,318.00001 437.79996,292.10001 421.59996,276.50001 C 409.99996,265.40001 391.29996,255.30001 375.29996,252.80001 C 359.09996,250.30001 350.59996,266.90001 337.39996,273.00001 z " />
        <path
           id="path29"
           d="M 267.89996,394.90001 C 268.99996,393.60001 270.19996,392.10001 271.19996,390.90001 C 274.69996,386.80001 276.89996,381.80001 279.29996,377.10001 C 290.39996,355.00001 274.19996,329.60001 254.79996,316.00001 C 246.79996,310.40001 240.29996,309.90001 237.39996,298.40001 C 236.09996,293.30001 238.29996,287.10001 237.49996,281.90001 C 236.49996,283.40001 235.09996,284.90001 233.09996,286.60001 C 214.49996,302.90001 182.79996,307.50001 169.19996,328.60001 C 154.19996,351.70001 177.59996,381.10001 196.79996,392.80001 C 215.39996,404.30001 241.89996,403.00001 267.89996,394.90001 z "
           style="fill:#ffffff" />
        <path
           id="path36"
           d="M 424.59996,295.80001 C 415.89996,268.90001 384.99996,262.60001 360.29996,252.60001 C 351.49996,255.70001 343.59996,260.60001 337.09996,267.10001 C 335.59996,273.30001 334.29996,279.60001 333.89996,285.80001 C 333.19996,296.30001 341.19996,304.80001 341.09996,315.30001 C 340.79996,335.70001 319.79996,351.20001 311.09996,368.30001 C 299.99996,390.10001 296.69996,418.30001 317.79996,435.50001 C 336.79996,451.10001 358.29996,427.70001 369.59996,413.70001 C 378.79996,402.30001 386.79996,390.00001 396.59996,379.00001 C 403.69996,371.00001 410.79996,362.80001 416.19996,353.60001 C 425.79996,337.20001 430.59996,314.30001 424.59996,295.80001 z "
           style="fill:url(#linearGradient2139)" />
        <g
           id="g2207">
          <path
             d="M 148.19996,325.50001 C 141.89996,335.30001 146.59996,348.30001 152.29996,357.30001 C 155.79996,362.80001 165.49996,377.40001 173.59996,375.00001 C 173.69996,375.00001 173.79996,374.90001 173.89996,374.90001 C 181.69996,372.00001 182.49996,361.70001 183.49996,354.70001 C 184.89996,344.70001 188.79996,335.30001 189.69996,325.20001 C 190.09996,320.80001 189.99996,314.80001 187.69996,310.80001 C 184.49996,305.20001 180.49996,307.10001 175.09996,308.80001 C 165.19996,311.80001 154.19996,316.20001 148.19996,325.50001 z "
             id="path38" />
          <path
             style="fill:#ffffff"
             d="M 176.29996,317.00001 C 171.19996,318.00001 166.09996,320.10001 162.09996,323.50001 C 158.99996,326.10001 154.49996,330.80001 155.89996,335.20001 C 158.09996,342.20001 162.39996,334.60001 163.79996,331.80001 C 166.19996,326.90001 168.99996,322.30001 173.49996,319.10001"
             id="path40" />
        </g>
        <path
           id="path42"
           d="M 255.39996,290.80001 C 259.59996,293.00001 268.59996,293.30001 272.79996,290.50001 C 278.59996,286.60001 272.19996,280.10001 268.59996,277.40001 C 266.29996,275.70001 263.39996,274.50001 260.89996,273.20001 C 257.99996,271.70001 253.99996,271.00001 250.79996,270.20001 C 251.19996,271.20001 251.89996,271.70001 252.49996,272.60001 C 254.09996,275.20001 254.79996,278.80001 254.39996,281.80001 C 254.09996,283.90001 251.99996,286.30001 252.99996,288.40001 C 253.39996,289.40001 254.29996,290.20001 255.39996,290.80001 z " />
      </g>
    </g>
  </g>
</svg>
