<?xml version="1.0" encoding="UTF-8" standalone="no"?>
<!-- Created with Inkscape (http://www.inkscape.org/) -->
<svg
   xmlns:dc="http://purl.org/dc/elements/1.1/"
   xmlns:cc="http://web.resource.org/cc/"
   xmlns:rdf="http://www.w3.org/1999/02/22-rdf-syntax-ns#"
   xmlns:svg="http://www.w3.org/2000/svg"
   xmlns="http://www.w3.org/2000/svg"
   xmlns:xlink="http://www.w3.org/1999/xlink"
   xmlns:sodipodi="http://inkscape.sourceforge.net/DTD/sodipodi-0.dtd"
   xmlns:inkscape="http://www.inkscape.org/namespaces/inkscape"
   width="32"
   height="32"
   id="svg1306"
   sodipodi:version="0.32"
   inkscape:version="0.43"
   sodipodi:docbase="/home/garrett/Work"
   sodipodi:docname="beagle_logo-32.svg"
   inkscape:export-filename="/home/garrett/Desktop/Beagle-logo-32.png"
   inkscape:export-xdpi="90"
   inkscape:export-ydpi="90"
   version="1.0">
  <defs
     id="defs3">
    <linearGradient
       y2="385.8916"
       x2="372.94241"
       y1="264.55859"
       x1="338.13379"
       gradientUnits="userSpaceOnUse"
       id="XMLID_1_"
       gradientTransform="translate(112.5743,151.8717)">
      <stop
         id="stop32"
         style="stop-color:#E6CBAA"
         offset="0" />
      <stop
         id="stop34"
         style="stop-color:#BB9D7C"
         offset="0.6292" />
    </linearGradient>
    <linearGradient
       inkscape:collect="always"
       xlink:href="#XMLID_1_"
       id="linearGradient2133"
       gradientUnits="userSpaceOnUse"
       gradientTransform="translate(112.5743,151.8717)"
       x1="338.13379"
       y1="264.55859"
       x2="372.94241"
       y2="385.8916" />
    <linearGradient
       inkscape:collect="always"
       xlink:href="#XMLID_1_"
       id="linearGradient2705"
       gradientUnits="userSpaceOnUse"
       gradientTransform="translate(0.5,1.1)"
       x1="338.13379"
       y1="264.55859"
       x2="372.94241"
       y2="385.8916" />
  </defs>
  <sodipodi:namedview
     id="base"
     pagecolor="#000000"
     bordercolor="#666666"
     borderopacity="1.0"
     inkscape:pageopacity="0"
     inkscape:pageshadow="2"
     inkscape:zoom="1"
     inkscape:cx="16"
     inkscape:cy="16"
     inkscape:document-units="px"
     inkscape:current-layer="layer1"
     showgrid="true"
     inkscape:grid-bbox="true"
     inkscape:grid-points="true"
     gridtolerance="0.50000000px"
     gridempspacing="3"
     inkscape:showpageshadow="false"
     showborder="true"
     inkscape:window-width="1600"
     inkscape:window-height="1153"
     inkscape:window-x="0"
     inkscape:window-y="0" />
  <metadata
     id="metadata4">
    <rdf:RDF>
      <cc:Work
         rdf:about="">
        <dc:format>image/svg+xml</dc:format>
        <dc:type
           rdf:resource="http://purl.org/dc/dcmitype/StillImage" />
      </cc:Work>
    </rdf:RDF>
  </metadata>
  <g
     inkscape:label="Layer 1"
     inkscape:groupmode="layer"
     id="layer1">
    <path
       id="path8"
       d="M 265.99996,488.70001 C 265.49996,489.30001 275.39996,488.70001 275.89996,488.60001 C 356.09996,480.40001 453.29996,411.70001 461.29996,325.80001 C 463.49996,302.40001 459.79996,268.30001 448.79996,247.20001 C 418.79996,189.70001 347.09996,158.90001 285.79996,183.70001 L 263.59996,57.00001 L 192.19996,69.60001 L 265.99996,488.70001 z "
       style="fill:#ed1b2d"
       transform="matrix(7.408023e-2,0,0,7.408023e-2,-6.301885,-4.222574)" />
    <g
       id="g2694"
       transform="matrix(0.996795,0,0,1.009483,-0.186096,0.398389)">
      <path
         transform="matrix(7.408023e-2,0,0,7.408023e-2,-6.301885,-4.222574)"
         style="fill:none;stroke:#ffffff;stroke-width:33.7471962;stroke-miterlimit:4;stroke-dasharray:none"
         id="Outline_1_"
         d="M 421.69996,276.60001 C 413.59996,268.80001 401.99996,261.60001 390.29996,257.10001 C 385.59996,245.50001 376.29996,235.40001 360.99996,228.20001 C 335.59996,216.20001 298.59996,207.70001 274.99996,226.70001 C 267.39996,232.80001 259.89996,239.30001 250.89996,243.30001 C 250.89996,243.30001 250.89996,243.30001 250.79996,243.30001 C 242.09996,247.20001 232.09996,248.00001 229.59996,258.90001 C 227.39996,268.30001 232.99996,276.10001 225.89996,284.40001 C 216.09996,296.00001 198.29996,298.40001 185.39996,305.90001 C 184.19996,306.60001 182.99996,307.40001 181.99996,308.20001 C 179.99996,308.30001 177.79996,309.10001 175.19996,309.90001 C 165.19996,313.00001 154.09996,317.40001 148.19996,326.50001 C 141.89996,336.20001 146.59996,349.00001 152.29996,358.00001 C 155.29996,362.70001 162.89996,374.10001 170.19996,375.60001 C 171.09996,377.60001 172.09996,379.50001 173.49996,381.40001 C 195.29996,412.70001 220.49996,418.70001 256.69996,406.50001 C 269.79996,402.10001 282.19996,396.40001 294.39996,390.00001 C 292.19996,399.30001 291.99996,408.90001 295.39996,418.90001 C 301.69996,437.30001 318.09996,453.80001 339.09996,448.40001 C 361.89996,442.60001 376.89996,415.20001 390.59996,398.30001 C 405.59996,379.90001 425.59996,362.10001 432.79996,338.20001 C 438.89996,318.00001 437.89996,292.10001 421.69996,276.60001 z " />
      <path
         style="stroke:#000000;stroke-width:6.74943924;stroke-miterlimit:4;stroke-dasharray:none;stroke-opacity:1"
         transform="matrix(7.408023e-2,0,0,7.408023e-2,-6.301885,-4.222574)"
         d="M 250.89996,243.40001 C 250.89996,243.40001 250.89996,243.40001 250.89996,243.40001 C 242.09996,247.30001 232.09996,248.10001 229.59996,259.00001 C 227.39996,268.40001 232.99996,276.20001 225.89996,284.50001 C 216.09996,296.10001 198.29996,298.50001 185.39996,306.00001 C 168.09996,316.00001 165.19996,336.10001 166.29996,354.90001 C 166.89996,365.50001 167.89996,373.50001 173.49996,381.40001 C 195.29996,412.70001 220.49996,418.70001 256.69996,406.50001 C 287.29996,396.20001 314.49996,378.70001 342.09996,362.50001 C 386.39996,336.60001 423.59996,257.60001 360.99996,228.10001 C 335.59996,216.10001 298.59996,207.60001 274.99996,226.60001 C 267.39996,232.80001 259.89996,239.40001 250.89996,243.40001 z "
         id="path23" />
      <path
         transform="matrix(7.408023e-2,0,0,7.408023e-2,-6.301885,-4.222574)"
         style="fill:#e6cbaa"
         d="M 233.09996,286.60001 C 214.49996,302.90001 182.79996,307.50001 169.19996,328.60001 C 154.19996,351.70001 177.59996,381.10001 196.79996,392.80001 C 238.09996,418.20001 317.49996,380.90001 345.49996,347.30001 C 361.09996,328.60001 381.89996,300.20001 380.59996,274.60001 C 378.89996,241.00001 352.39996,232.80001 325.29996,226.10001 C 311.69996,222.80001 294.39996,224.00001 282.39996,231.70001 C 273.69996,237.30001 267.49996,245.30001 257.29996,248.90001 C 249.89996,251.50001 239.59996,250.30001 238.39996,260.60001 C 236.89996,272.30001 244.49996,276.60001 233.09996,286.60001"
         id="path25" />
      <path
         style="stroke:#000000;stroke-width:6.74943924;stroke-miterlimit:4;stroke-dasharray:none;stroke-opacity:1"
         transform="matrix(7.408023e-2,0,0,7.408023e-2,-6.301885,-4.222574)"
         d="M 337.39996,273.00001 C 327.49996,277.60001 326.99996,290.50001 328.99996,299.60001 C 331.39996,310.40001 334.79996,319.70001 328.79996,330.00001 C 323.49996,339.10001 315.59996,346.30001 310.19996,355.40001 C 298.59996,374.90001 287.49996,396.00001 295.29996,418.90001 C 301.59996,437.30001 317.99996,453.80001 338.99996,448.40001 C 361.79996,442.60001 376.79996,415.20001 390.49996,398.30001 C 405.49996,379.90001 425.49996,362.10001 432.69996,338.20001 C 438.79996,318.00001 437.79996,292.10001 421.59996,276.50001 C 409.99996,265.40001 391.29996,255.30001 375.29996,252.80001 C 359.09996,250.30001 350.59996,266.90001 337.39996,273.00001 z "
         id="path27" />
      <path
         transform="matrix(7.408023e-2,0,0,7.408023e-2,-6.301885,-4.222574)"
         style="fill:#ffffff"
         d="M 267.89996,394.90001 C 268.99996,393.60001 270.19996,392.10001 271.19996,390.90001 C 274.69996,386.80001 276.89996,381.80001 279.29996,377.10001 C 290.39996,355.00001 274.19996,329.60001 254.79996,316.00001 C 246.79996,310.40001 240.29996,309.90001 237.39996,298.40001 C 236.09996,293.30001 238.29996,287.10001 237.49996,281.90001 C 236.49996,283.40001 235.09996,284.90001 233.09996,286.60001 C 214.49996,302.90001 182.79996,307.50001 169.19996,328.60001 C 154.19996,351.70001 177.59996,381.10001 196.79996,392.80001 C 215.39996,404.30001 241.89996,403.00001 267.89996,394.90001 z "
         id="path29" />
      <path
         transform="matrix(7.408023e-2,0,0,7.408023e-2,-6.301885,-4.222574)"
         style="fill:url(#linearGradient2705)"
         d="M 424.59996,295.80001 C 415.89996,268.90001 384.99996,262.60001 360.29996,252.60001 C 351.49996,255.70001 343.59996,260.60001 337.09996,267.10001 C 335.59996,273.30001 334.29996,279.60001 333.89996,285.80001 C 333.19996,296.30001 341.19996,304.80001 341.09996,315.30001 C 340.79996,335.70001 319.79996,351.20001 311.09996,368.30001 C 299.99996,390.10001 296.69996,418.30001 317.79996,435.50001 C 336.79996,451.10001 358.29996,427.70001 369.59996,413.70001 C 378.79996,402.30001 386.79996,390.00001 396.59996,379.00001 C 403.69996,371.00001 410.79996,362.80001 416.19996,353.60001 C 425.79996,337.20001 430.59996,314.30001 424.59996,295.80001 z "
         id="path36" />
      <path
         style="stroke:#000000;stroke-width:6.74943924;stroke-miterlimit:4;stroke-dasharray:none;stroke-opacity:1"
         transform="matrix(7.408023e-2,0,0,7.408023e-2,-6.301885,-4.222574)"
         d="M 148.19996,325.50001 C 141.89996,335.30001 146.59996,348.30001 152.29996,357.30001 C 155.79996,362.80001 165.49996,377.40001 173.59996,375.00001 C 173.69996,375.00001 173.79996,374.90001 173.89996,374.90001 C 181.69996,372.00001 182.49996,361.70001 183.49996,354.70001 C 184.89996,344.70001 188.79996,335.30001 189.69996,325.20001 C 190.09996,320.80001 189.99996,314.80001 187.69996,310.80001 C 184.49996,305.20001 180.49996,307.10001 175.09996,308.80001 C 165.19996,311.80001 154.19996,316.20001 148.19996,325.50001 z "
         id="path38" />
      <path
         transform="matrix(7.408023e-2,0,0,7.408023e-2,-6.301885,-4.222574)"
         style="fill:#ffffff"
         d="M 176.29996,317.00001 C 171.19996,318.00001 166.09996,320.10001 162.09996,323.50001 C 158.99996,326.10001 154.49996,330.80001 155.89996,335.20001 C 158.09996,342.20001 162.39996,334.60001 163.79996,331.80001 C 166.19996,326.90001 168.99996,322.30001 173.49996,319.10001"
         id="path40" />
      <path
         transform="matrix(7.408023e-2,0,0,7.408023e-2,-6.301885,-4.222574)"
         d="M 255.39996,290.80001 C 259.59996,293.00001 268.59996,293.30001 272.79996,290.50001 C 278.59996,286.60001 272.19996,280.10001 268.59996,277.40001 C 266.29996,275.70001 263.39996,274.50001 260.89996,273.20001 C 257.99996,271.70001 253.99996,271.00001 250.79996,270.20001 C 251.19996,271.20001 251.89996,271.70001 252.49996,272.60001 C 254.09996,275.20001 254.79996,278.80001 254.39996,281.80001 C 254.09996,283.90001 251.99996,286.30001 252.99996,288.40001 C 253.39996,289.40001 254.29996,290.20001 255.39996,290.80001 z "
         id="path42" />
    </g>
  </g>
</svg>
