<?xml version="1.0" encoding="utf-8"?>
<!-- Generator: Adobe Illustrator 11 Build 196, SVG Export Plug-In  -->
<!DOCTYPE svg PUBLIC "-//W3C//DTD SVG 1.0//EN"    "http://www.w3.org/TR/2001/REC-SVG-20010904/DTD/svg10.dtd" [
	<!ENTITY ns_flows "http://ns.adobe.com/Flows/1.0/">
	<!ENTITY ns_svg "http://www.w3.org/2000/svg">
	<!ENTITY ns_xlink "http://www.w3.org/1999/xlink">
]>
<svg  xmlns="&ns_svg;" xmlns:xlink="&ns_xlink;" xmlns:a="http://ns.adobe.com/AdobeSVGViewerExtensions/3.0/"
	 width="318" height="433" viewBox="8.825 -0.002 318 433" xml:space="preserve">
	<defs>
	</defs>
	<g>
		<path display="none" fill="#1A5188" d="M76.65,227.603c-23.894,5.077-39.099,9.698-54.586,25.684
			c-18.344,18.946-0.932,51.832,9.248,69.859c7.438,13.175,15.997,28.833,30.642,35.081c18.606,7.942,30.259-6.466,47.019-11.208
			c19-5.38,28.088-7.526,45.514-15.916c20.026-9.645,37.125-23.744,51.764-40.791c7.151-8.333,16.458-12.914,23.827-21.4
			c22.993-26.471,31.073-71.322,8.541-98.614c-14.813-17.938-42.906-25.78-64.453-22.154c-24.988,4.204-38.556,29.683-67.155,28.713
			c-13.331-0.452-28.188,13.49-25.553,28.064C83.509,216.268,94.9,223.724,76.65,227.603z"/>
		<path display="none" fill="#1A5188" d="M86.431,235.822c-11.089,1.96-22.367,2.093-33.413,8.61
			c-12.59,7.429-25.806,20.136-23.877,36.125c2.514,20.853,10.792,52.05,30.645,63.054c17.239,9.557,27.717-1.637,45.591-5.996
			c46.305-11.292,89.434-23.33,112.111-69.223c8.628-17.463,20.99-40.022,21.129-59.713c0.137-19.805-13.386-36.174-28.705-43.894
			c-25.418-12.81-55.595,4.102-78.518,14.972c-5.799,2.75-8.116,5.748-14.673,6.529c-7.399,0.881-15.006-3.348-20.548,3.99
			c-11.05,14.629,2.933,27.063,5.145,41.002C96.42,233.674,91.447,234.934,86.431,235.822z"/>
		<path display="none" fill="#1A5188" d="M31.172,300.249c8.464-1.633,12.945-16.907,17.242-23.433
			c4.536-6.887,30.026-47.345,4.493-42.859c-15.255,2.68-58.608,10.18-52.281,34.224c2.441,9.275,18.156,33.837,30.164,32.132
			C30.918,300.294,31.045,300.274,31.172,300.249z"/>
		<path display="none" fill="#1A5188" d="M216.681,183.491c23.047,22.38,57.365,31.56,58.381,67.874
			c0.417,15.004-7.585,24.084-15.376,35.461c-7.332,10.7-16.412,24.726-20.362,36.692c-4.637,14.034-13.008,22.161-21.766,33.433
			c-2.588,3.322-31.124,26.939-32.095,21.797c-1.964-10.348-10.412-19.881-15.158-29.007c-7.531-14.472-3.943-16.583,1.442-30.77
			c3.326-8.779,5.737-16.809,10.374-25.211c9.988-18.096,34.112-37.093,25.113-59.757c-3.972-10.002-0.227-19.947,2.838-29.462
			c2.963-9.193,3.218-17.831,4.827-27.468"/>
		<path display="none" fill="#1A5188" d="M216.681,183.491c23.047,22.38,57.365,31.56,58.381,67.874
			c0.417,15.004-7.585,24.084-15.376,35.461c-7.332,10.7-16.412,24.726-20.362,36.692c-4.637,14.034-13.008,22.161-21.766,33.433
			c-2.588,3.322-31.124,26.939-32.095,21.797c-1.964-10.348-10.412-19.881-15.158-29.007c-7.531-14.472-3.943-16.583,1.442-30.77
			c3.326-8.779,5.737-16.809,10.374-25.211c9.988-18.096,34.112-37.093,25.113-59.757c-3.972-10.002-0.227-19.947,2.838-29.462
			c2.963-9.193,3.218-17.831,4.827-27.468"/>
		<path display="none" fill="#1A5188" d="M227.521,193.036c-5.927-1.416-17.15-1.586-22.118,5.259
			c-7.027,9.687-15.623,30.114-10.189,41.982c10.006,21.84-19.209,41.042-31.605,58.965c-5.759,8.329-8.862,16.227-13.079,24.878
			c-6.82,13.983-11.136,16.146-2.633,30.042c8.7,14.229,18.335,28.021,27.27,42.105c13.467-0.623,39.029-20.83,47.462-31.329
			c9.519-11.854,26.031-21.424,31.344-36.193c4.532-12.596,6.139-26.229,14.104-37.476c8.476-11.973,17.167-21.528,16.78-37.259
			c-0.409-16.81-8.541-43.216-22.202-53.904c-9.279-7.256-18.01-4.76-28.569-5.849C231.637,194.004,229.48,193.503,227.521,193.036z
			"/>
		<path display="none" fill="#1A5188" d="M216.681,183.491c23.047,22.38,57.365,31.56,58.381,67.874
			c0.417,15.004-7.585,24.084-15.376,35.461c-7.332,10.7-16.412,24.726-20.362,36.692c-4.637,14.034-13.008,22.161-21.766,33.433
			c-2.588,3.322-31.124,26.939-32.095,21.797c-1.964-10.348-10.412-19.881-15.158-29.007c-7.531-14.472-3.943-16.583,1.442-30.77
			c3.326-8.779,5.737-16.809,10.374-25.211c9.988-18.096,34.112-37.093,25.113-59.757c-3.972-10.002-0.227-19.947,2.838-29.462
			c2.963-9.193,3.218-17.831,4.827-27.468"/>
		<path display="none" fill="#1A5188" d="M32.434,248.966c-7.249,2.793-30.382,21.835-12.004,24.604
			c0.023-9.338,2.072-15.426,9.238-21.962"/>
		<path display="none" fill="#1A5188" d="M110.454,222.629c-0.996,0.854-1.789,1.848-2.276,3.044
			c11.206,0.605,15.421,17.381,26.879,3.961c4.824-5.649,2.023-25.125,5.277-27.594c-5.38,4.081-9.595,9.909-15.728,13.729
			C120.678,218.215,114.167,219.442,110.454,222.629z"/>
		<path fill="#FE000C" d="M129.971,431.729c-0.479,0.622,9.445-0.013,9.945-0.064c80.177-8.238,177.426-76.907,185.373-162.779
			c2.161-23.369-1.487-57.474-12.466-78.562c-29.962-57.543-101.712-88.266-162.963-63.485L127.494,0L56.066,12.595L129.971,431.729
			z"/>
		<path d="M92.858,217.988c-24.278,1.868-39.91,4.479-57.347,18.641c-20.657,16.788-7.87,52.743-0.234,72.537
			c5.58,14.47,11.934,31.627,25.558,40.026c17.309,10.677,30.037-6.453,47.22-8.967c19.483-2.862,29.46,0.253,47.793-5.892
			c21.069-7.07,39.844-19.083,56.582-34.447c8.182-7.506,17.985-10.894,26.4-18.528c26.255-23.817,40.245-68.449,21.656-99.403
			c-12.226-20.348-38.916-32.235-60.68-31.519c-25.239,0.83-42.058,24.941-70.167,19.993c-13.104-2.307-29.645,9.856-28.996,25.088
			C101.15,207.375,111.4,216.557,92.858,217.988z"/>
		<path fill="#FFFFFF" d="M99.827,225.972c-11.319,0.452-22.583-0.941-34.475,4.062c-13.558,5.705-28.451,16.58-28.691,32.781
			c-0.315,21.128,3.717,53.347,22.019,67.004c15.894,11.859,27.853,2.122,46.261,0.188c47.689-4.988,92.314-11.154,121.13-53.836
			c10.961-16.239,26.338-37.061,29.14-56.668c2.816-19.725-8.449-37.873-22.68-47.644c-15.034-10.321-33.851-8.583-50.788-4.658
			c-12.049,2.791-22.765,10.186-35.092,11.903c-8.978,1.25-23.946-4.272-30.952,2.782c-12.995,13.089-0.739,27.375-0.417,41.572
			C110.074,225.181,104.944,225.766,99.827,225.972z"/>
		<path d="M36.021,282.724c8.659-0.484,15.192-15.106,20.356-21.029c5.457-6.252,36.339-43.135,10.281-42.119
			c-15.571,0.607-59.806,2.219-56.75,27.043c1.18,9.577,13.522,36.19,25.723,36.114C35.762,282.733,35.891,282.73,36.021,282.724z"
			/>
		<path fill="#FFFFFF" d="M236.75,191.423c19.945,25.43,52.92,39.227,49.02,75.563c-1.615,15.016-10.823,22.982-20.132,33.271
			c-8.755,9.674-19.702,22.428-25.261,33.824c-6.521,13.36-15.964,20.333-26.222,30.382c-3.028,2.962-34.673,22.646-34.942,17.388
			c-0.559-10.584-7.692-21.229-11.188-30.968c-5.548-15.443-1.688-17.065,5.601-30.478c4.504-8.302,7.994-15.981,13.753-23.73
			c12.404-16.688,39.026-32.359,33.122-56.174c-2.606-10.507,2.471-19.916,6.812-28.985c4.199-8.764,5.621-17.341,8.53-26.731"/>
		<path fill="#FFFFFF" d="M236.75,191.423c19.945,25.43,52.92,39.227,49.02,75.563c-1.615,15.016-10.823,22.982-20.132,33.271
			c-8.755,9.674-19.702,22.428-25.261,33.824c-6.521,13.36-15.964,20.333-26.222,30.382c-3.028,2.962-34.673,22.646-34.942,17.388
			c-0.559-10.584-7.692-21.229-11.188-30.968c-5.548-15.443-1.688-17.065,5.601-30.478c4.504-8.302,7.994-15.981,13.753-23.73
			c12.404-16.688,39.026-32.359,33.122-56.174c-2.606-10.507,2.471-19.916,6.812-28.985c4.199-8.764,5.621-17.341,8.53-26.731"/>
		<path d="M246.266,202.407c-5.719-2.213-16.88-3.902-22.764,2.25c-8.312,8.707-19.647,27.908-15.834,40.476
			c7.018,23.124-24.702,38.312-39.486,54.504c-6.867,7.521-11.03,14.975-16.405,23.033c-8.69,13.016-13.285,14.589-6.688,29.591
			c6.748,15.359,14.487,30.412,21.488,45.664c13.509,1.202,41.727-15.484,51.551-24.812c11.096-10.531,28.849-17.836,36.145-31.839
			c6.22-11.944,9.67-25.316,19.129-35.453c10.072-10.788,20.027-19.137,21.772-34.873c1.865-16.812-2.667-44.236-14.845-56.739
			c-8.264-8.489-17.31-7.183-27.684-9.697C250.238,203.928,248.155,203.139,246.266,202.407z"/>
		
			<linearGradient id="XMLID_1_" gradientUnits="userSpaceOnUse" x1="155" y1="221.1499" x2="108.471" y2="352.5263" gradientTransform="matrix(0.9848 -0.1736 0.1736 0.9848 48.7456 26.9593)">
			<stop  offset="0" style="stop-color:#FFFFFF"/>
			<stop  offset="1" style="stop-color:#636363"/>
			<a:midPointStop  offset="0" style="stop-color:#FFFFFF"/>
			<a:midPointStop  offset="0.5" style="stop-color:#FFFFFF"/>
			<a:midPointStop  offset="1" style="stop-color:#636363"/>
		</linearGradient>
		<path fill="url(#XMLID_1_)" d="M236.75,191.423c19.945,25.43,52.92,39.227,49.02,75.563
			c-1.615,15.016-10.823,22.982-20.132,33.271c-8.755,9.674-19.702,22.428-25.261,33.824c-6.521,13.36-15.964,20.333-26.222,30.382
			c-3.028,2.962-34.673,22.646-34.942,17.388c-0.559-10.584-7.692-21.229-11.188-30.968c-5.548-15.443-1.688-17.065,5.601-30.478
			c4.504-8.302,7.994-15.981,13.753-23.73c12.404-16.688,39.026-32.359,33.122-56.174c-2.606-10.507,2.471-19.916,6.812-28.985
			c4.199-8.764,5.621-17.341,8.53-26.731"/>
		<path fill="#FFFFFF" d="M44.217,231.769c-7.604,1.804-33.243,17.655-15.294,22.904c1.284-9.306,4.15-15.097,12.179-20.645"/>
		<path d="M125.558,216.069c-1.108,0.716-2.033,1.601-2.681,2.726c11.089,2.119,13.02,19.414,26.262,7.585
			c5.572-4.979,5.415-24.771,8.991-26.794c-5.916,3.342-10.903,8.58-17.535,11.56C136.346,213.053,129.69,213.396,125.558,216.069z"
			/>
	</g>
</svg>
